<?xml version="1.0" encoding="utf-8"?>
<!-- Generator: Adobe Illustrator 22.1.0, SVG Export Plug-In . SVG Version: 6.00 Build 0)  -->
<svg version="1.1" id="Слой_1" xmlns="http://www.w3.org/2000/svg" xmlns:xlink="http://www.w3.org/1999/xlink" x="0px" y="0px"
	 width="65px" height="65px" viewBox="0 0 65 65" enable-background="new 0 0 65 65" xml:space="preserve" fill="#fccf91">
<g>
	<g>
		<g>
			<path d="M65,53.526v-3.063H0v3.063c0,2.853,2.313,5.166,5.166,5.166h12.706v4.386h-3.244c-0.531,0-0.961,0.43-0.961,0.961v0
				c0,0.531,0.43,0.961,0.961,0.961h35.744c0.531,0,0.961-0.43,0.961-0.961v0c0-0.531-0.43-0.961-0.961-0.961h-3.245v-4.386h12.707
				C62.687,58.692,65,56.379,65,53.526z M45.206,63.078H19.794v-4.386h25.412V63.078z M5.166,56.77
				c-1.789,0-3.245-1.456-3.245-3.244v-1.142h61.157v1.142c0,1.789-1.456,3.244-3.244,3.244H5.166z"/>
			<path d="M5.166,12.435h2.102c0.531,0,0.961-0.43,0.961-0.961v0c0-0.531-0.43-0.961-0.961-0.961H5.166
				C2.313,10.513,0,12.826,0,15.679v31.539c0,0.531,0.43,0.961,0.961,0.961h0c0.531,0,0.961-0.43,0.961-0.961V15.679
				C1.922,13.887,3.374,12.435,5.166,12.435z"/>
			<path d="M63.078,15.679v31.54c0,0.531,0.43,0.961,0.961,0.961h0c0.531,0,0.961-0.43,0.961-0.961V15.679
				c0-2.853-2.313-5.166-5.166-5.166h-2.103c-0.531,0-0.961,0.43-0.961,0.961v0c0,0.531,0.43,0.961,0.961,0.961h2.103
				C61.626,12.435,63.078,13.887,63.078,15.679z"/>
			<path d="M25.231,1.448V38.32c0,0.8,0.649,1.448,1.448,1.448h26.358c0.8,0,1.448-0.649,1.448-1.448V1.448
				c0-0.8-0.649-1.448-1.448-1.448H26.68C25.88,0,25.231,0.649,25.231,1.448z M52.566,37.847H27.153V1.922h25.413V37.847z"/>
			<path d="M22.948,9.371L22.948,9.371c0-0.531-0.43-0.961-0.961-0.961H11.962c-0.8,0-1.448,0.649-1.448,1.448v36.872
				c0,0.8,0.649,1.448,1.448,1.448H38.32c0.8,0,1.448-0.649,1.448-1.448v-3.718c0-0.531-0.43-0.961-0.961-0.961h0
				c-0.531,0-0.961,0.43-0.961,0.961v3.245H12.435V10.332h9.552C22.518,10.332,22.948,9.902,22.948,9.371z"/>
			<path d="M30.488,19.884v5.82c0,0.8,0.649,1.448,1.448,1.448h15.845c0.8,0,1.448-0.649,1.448-1.448v-5.82
				c0-2.646-2.078-4.896-4.731-5.121l-0.183-0.016l0.124-0.136c1.549-1.695,2.077-4.111,1.241-6.379
				c-0.786-2.13-2.746-3.682-4.998-3.974c-3.794-0.491-7.042,2.464-7.042,6.164c0,1.548,0.581,3.036,1.637,4.189l0.124,0.136
				l-0.183,0.016C32.566,14.989,30.488,17.238,30.488,19.884z M39.859,6.127c2.369,0,4.296,1.927,4.296,4.296
				s-1.927,4.296-4.296,4.296c-2.369,0-4.296-1.927-4.296-4.296S37.49,6.127,39.859,6.127z M35.654,16.64h8.411
				c1.789,0,3.244,1.456,3.244,3.245v5.347H32.409v-5.347C32.409,18.095,33.865,16.64,35.654,16.64z"/>
			<path d="M30.488,30.397L30.488,30.397c0,0.531,0.43,0.961,0.961,0.961h0c0.531,0,0.961-0.43,0.961-0.961v0
				c0-0.531-0.43-0.961-0.961-0.961h0C30.918,29.437,30.488,29.867,30.488,30.397z"/>
			<path d="M34.693,30.397L34.693,30.397c0,0.531,0.43,0.961,0.961,0.961h12.615c0.531,0,0.961-0.43,0.961-0.961v0
				c0-0.531-0.43-0.961-0.961-0.961H35.654C35.123,29.437,34.693,29.867,34.693,30.397z"/>
			<path d="M47.309,34.602L47.309,34.602c0,0.531,0.43,0.961,0.961,0.961l0,0c0.531,0,0.961-0.43,0.961-0.961l0,0
				c0-0.531-0.43-0.961-0.961-0.961l0,0C47.739,33.642,47.309,34.072,47.309,34.602z"/>
			<path d="M30.488,34.602L30.488,34.602c0,0.531,0.43,0.961,0.961,0.961h12.615c0.531,0,0.961-0.43,0.961-0.961l0,0
				c0-0.531-0.43-0.961-0.961-0.961H31.449C30.918,33.642,30.488,34.072,30.488,34.602z"/>
			<path d="M22.948,13.577L22.948,13.577c0-0.531-0.43-0.961-0.961-0.961h-7.269v8.229h7.269c0.531,0,0.961-0.43,0.961-0.961v0
				c0-0.531-0.43-0.961-0.961-0.961H16.64v-4.386h5.347C22.518,14.537,22.948,14.107,22.948,13.577z"/>
			<path d="M14.718,24.09L14.718,24.09c0,0.531,0.43,0.961,0.961,0.961h6.308c0.531,0,0.961-0.43,0.961-0.961v0
				c0-0.531-0.43-0.961-0.961-0.961h-6.308C15.149,23.129,14.718,23.559,14.718,24.09z"/>
			<path d="M14.718,28.295L14.718,28.295c0,0.531,0.43,0.961,0.961,0.961h6.308c0.531,0,0.961-0.43,0.961-0.961v0
				c0-0.531-0.43-0.961-0.961-0.961h-6.308C15.149,27.334,14.718,27.764,14.718,28.295z"/>
			<path d="M14.718,36.705L14.718,36.705c0,0.531,0.43,0.961,0.961,0.961h0c0.531,0,0.961-0.43,0.961-0.961v0
				c0-0.531-0.43-0.961-0.961-0.961h0C15.149,35.744,14.718,36.174,14.718,36.705z"/>
			<path d="M18.923,36.705L18.923,36.705c0,0.531,0.43,0.961,0.961,0.961h2.103c0.531,0,0.961-0.43,0.961-0.961l0,0
				c0-0.531-0.43-0.961-0.961-0.961h-2.103C19.354,35.744,18.923,36.174,18.923,36.705z"/>
			<path d="M14.718,40.91L14.718,40.91c0,0.531,0.43,0.961,0.961,0.961h6.308c0.531,0,0.961-0.43,0.961-0.961v0
				c0-0.531-0.43-0.961-0.961-0.961h-6.308C15.149,39.95,14.718,40.38,14.718,40.91z"/>
		</g>
	</g>
</g>
</svg>
