<?xml version="1.0" encoding="utf-8"?>
<!-- Generator: Adobe Illustrator 22.1.0, SVG Export Plug-In . SVG Version: 6.00 Build 0)  -->
<svg version="1.1" id="Слой_1" xmlns="http://www.w3.org/2000/svg" xmlns:xlink="http://www.w3.org/1999/xlink" x="0px" y="0px"
	 width="65px" height="65px" viewBox="0 0 65 65" enable-background="new 0 0 65 65" xml:space="preserve" fill="#fccf91">
<path d="M65,27.711c0-0.482-0.392-0.874-0.874-0.874h-8.228c-0.482,0-0.874,0.392-0.874,0.874v6.493
	c0,0.482,0.392,0.874,0.874,0.874c0.482,0,0.874-0.392,0.874-0.874v-5.618h6.479v34.666h-6.479V43.845
	c0-0.482-0.392-0.874-0.874-0.874c-0.482,0-0.874,0.392-0.874,0.874v19.406H51.63V36.228c0-0.482-0.392-0.874-0.874-0.874h-8.228
	c-0.482,0-0.874,0.392-0.874,0.874v27.023h-3.394V45.227c0-0.482-0.392-0.874-0.874-0.874h-8.228c-0.482,0-0.874,0.392-0.874,0.874
	v18.024h-3.394V52.604c0-0.482-0.392-0.874-0.874-0.874h-8.228c-0.482,0-0.874,0.392-0.874,0.874v10.648H3.445
	c-0.936,0-1.697-0.761-1.697-1.697V3.445c0-0.936,0.761-1.697,1.697-1.697h33.577v8.897c0,1.9,1.545,3.445,3.445,3.445h8.896v16.224
	c0,0.482,0.392,0.874,0.874,0.874s0.874-0.392,0.874-0.874V13.216c0-0.23-0.093-0.455-0.256-0.618L38.514,0.256
	C38.349,0.091,38.13,0,37.896,0H3.445C1.546,0,0,1.546,0,3.445v58.109C0,63.455,1.546,65,3.445,65h60.68
	C64.608,65,65,64.608,65,64.126V27.711z M38.771,2.985l9.357,9.357h-7.66c-0.936,0-1.697-0.761-1.697-1.697V2.985z M23.141,63.252
	h-6.479v-9.774h6.479V63.252z M36.511,63.252h-6.479v-17.15h6.479V63.252z M49.881,63.252h-6.479V37.102h6.479V63.252z"/>
<path d="M56.772,38.785c0-0.23-0.093-0.455-0.256-0.618v0c-0.162-0.163-0.387-0.256-0.618-0.256s-0.456,0.093-0.618,0.256
	c-0.163,0.163-0.257,0.388-0.257,0.618s0.093,0.455,0.256,0.618c0.323,0.322,0.913,0.323,1.236,0
	C56.679,39.24,56.772,39.015,56.772,38.785z"/>
<path d="M18.304,7.036c-0.482,0-0.874,0.392-0.874,0.874v2.682l-0.367,0.04c-5.799,0.629-10.172,5.507-10.172,11.346
	c0,6.293,5.12,11.413,11.413,11.413c5.839,0,10.716-4.373,11.346-10.172l0.04-0.367h2.682c0.482,0,0.874-0.392,0.874-0.874
	C33.246,13.739,26.543,7.036,18.304,7.036z M27.876,23.32c-0.662,4.744-4.777,8.322-9.572,8.322c-5.329,0-9.665-4.335-9.665-9.665
	c0-4.794,3.578-8.909,8.322-9.572l0.468-0.065v9.637c0,0.482,0.392,0.874,0.874,0.874h9.637L27.876,23.32z M19.178,21.104V8.805
	l0.452,0.045c6.214,0.624,11.177,5.586,11.8,11.8l0.045,0.452H19.178z"/>
<path d="M32.371,37.829H7.816c-0.482,0-0.874,0.392-0.874,0.874s0.392,0.874,0.874,0.874h24.555c0.482,0,0.874-0.392,0.874-0.874
	S32.854,37.829,32.371,37.829z"/>
<path d="M16.044,44.032H7.816c-0.482,0-0.874,0.392-0.874,0.874s0.392,0.874,0.874,0.874h8.228c0.482,0,0.874-0.392,0.874-0.874
	S16.526,44.032,16.044,44.032z"/>
<path d="M23.357,44.906c0-0.23-0.093-0.455-0.256-0.618c-0.163-0.163-0.388-0.256-0.618-0.256c-0.23,0-0.455,0.093-0.618,0.256
	c-0.163,0.162-0.256,0.388-0.256,0.618s0.093,0.456,0.255,0.617c0.325,0.324,0.914,0.324,1.237,0.001
	C23.263,45.362,23.357,45.136,23.357,44.906z"/>
</svg>
