<svg xmlns="http://www.w3.org/2000/svg" xmlns:xlink="http://www.w3.org/1999/xlink" width="54" height="54" viewBox="0 0 54 54"><defs><path id="rgsda" d="M958 6588.998c14.912 0 27 12.089 27 27 0 14.912-12.088 27-27 27s-27-12.088-27-27c0-14.911 12.088-27 27-27z"/><path id="rgsdc" d="M951 6624.868v-18.684c0-.868.871-1.514 1.733-1.007.69.407 14.488 8.621 15.665 9.323.774.462.76 1.562 0 2.025-.847.515-14.698 8.77-15.7 9.344-.735.42-1.699-.044-1.699-1.001z"/><clipPath id="rgsdb"><use fill="#fff" xlink:href="#rgsda"/></clipPath></defs><g><g transform="translate(-931 -6589)"><use fill="#fff" fill-opacity="0" stroke="#fff" stroke-miterlimit="50" stroke-width="6" clip-path="url(&quot;#rgsdb&quot;)" xlink:href="#rgsda"/></g><g transform="translate(-931 -6589)"><use fill="#fff" xlink:href="#rgsdc"/></g></g></svg>