<?xml version="1.0" encoding="utf-8"?>
<!-- Generator: Adobe Illustrator 22.1.0, SVG Export Plug-In . SVG Version: 6.00 Build 0)  -->
<svg version="1.1" id="Capa_1" xmlns="http://www.w3.org/2000/svg" xmlns:xlink="http://www.w3.org/1999/xlink" x="0px" y="0px"
	 width="67.242px" height="65px" viewBox="0 0 67.242 65" enable-background="new 0 0 67.242 65" xml:space="preserve" fill="#fccf91">
<g>
	<g>
		<path d="M57.134,21.349c-0.001,0-0.002,0-0.002,0H0.963C0.432,21.348,0.001,21.778,0,22.31c0,0.001,0,0.002,0,0.002v26.962
			c-0.001,0.531,0.429,0.962,0.96,0.963c0,0,0.002,0,0.002,0h38.195c0.532,0,0.963-0.431,0.963-0.963s-0.431-0.963-0.963-0.963
			H1.925V23.274h54.243v2.407c-0.001,0.531,0.429,0.962,0.96,0.963c0.001,0,0.002,0,0.002,0c0.531,0.001,0.962-0.429,0.963-0.96
			c0-0.001,0-0.002,0-0.002v-3.37C58.095,21.781,57.665,21.35,57.134,21.349z"/>
	</g>
</g>
<g>
	<g>
		<path d="M50.602,16.879L5.667,6.769C5.418,6.713,5.157,6.758,4.941,6.895C4.725,7.032,4.572,7.249,4.516,7.499l-2.247,10.11
			c-0.115,0.519,0.212,1.034,0.731,1.149c0.519,0.115,1.034-0.212,1.149-0.731l2.037-9.168l43.994,9.898
			c0.07,0.016,0.141,0.024,0.212,0.024c0.532-0.001,0.962-0.433,0.961-0.964C51.353,17.367,51.041,16.978,50.602,16.879z"/>
	</g>
</g>
<g>
	<g>
		<path d="M45.146,11.308L18.185,0.075c-0.469-0.195-1.009,0.005-1.236,0.459l-2.247,4.493c-0.254,0.469-0.079,1.056,0.39,1.309
			c0.469,0.254,1.056,0.079,1.309-0.39c0.01-0.018,0.019-0.037,0.028-0.056v0.002l1.843-3.689L44.403,13.09
			c0.492,0.205,1.057-0.027,1.263-0.519C45.87,12.079,45.638,11.514,45.146,11.308z"/>
	</g>
</g>
<g>
	<g>
		<path d="M45.827,25.843h-8.916c-0.532,0-0.963,0.431-0.963,0.963c0,0.532,0.431,0.963,0.963,0.963h8.916
			c0.532,0,0.963-0.431,0.963-0.963C46.79,26.274,46.359,25.843,45.827,25.843z"/>
	</g>
</g>
<g>
	<g>
		<path d="M27.924,25.907c-5.46,0-9.886,4.426-9.886,9.886c0.006,5.457,4.428,9.88,9.886,9.886c5.46,0,9.886-4.426,9.886-9.886
			S33.383,25.907,27.924,25.907z M27.924,43.881c-4.467,0-8.088-3.621-8.088-8.088c0.005-4.465,3.623-8.083,8.088-8.088
			c4.467,0,8.088,3.621,8.088,8.088C36.012,40.259,32.391,43.881,27.924,43.881z"/>
	</g>
</g>
<g>
	<g>
		<path d="M54.885,29.052c-5.954,0-12.357,1.406-12.357,4.494v26.961c0,3.087,6.403,4.493,12.357,4.493s12.357-1.406,12.357-4.493
			V33.546C67.242,30.458,60.839,29.052,54.885,29.052z M64.995,60.49c-0.17,0.623-3.539,2.264-10.11,2.264s-9.941-1.64-10.11-2.247
			v-1.766c2.391,1.204,6.339,1.766,10.11,1.766s7.721-0.567,10.11-1.767V60.49z M64.995,55.996c-0.17,0.623-3.539,2.264-10.11,2.264
			s-9.941-1.64-10.11-2.247v-1.766c2.391,1.204,6.339,1.766,10.11,1.766s7.721-0.567,10.11-1.767V55.996z M64.995,51.503
			c-0.17,0.623-3.539,2.264-10.11,2.264s-9.941-1.64-10.11-2.247v-1.766c2.391,1.204,6.339,1.766,10.11,1.766
			s7.721-0.567,10.11-1.767V51.503z M64.995,47.009c-0.17,0.623-3.539,2.264-10.11,2.264s-9.941-1.64-10.11-2.247V45.26
			c2.391,1.204,6.339,1.766,10.11,1.766s7.721-0.567,10.11-1.767V47.009z M64.995,42.516c-0.17,0.623-3.539,2.264-10.11,2.264
			s-9.941-1.64-10.11-2.247v-1.766c2.391,1.199,6.339,1.766,10.11,1.766s7.721-0.567,10.11-1.767V42.516z M64.995,38.022
			c-0.17,0.623-3.539,2.264-10.11,2.264s-9.941-1.64-10.11-2.247v-1.766c2.391,1.199,6.339,1.766,10.11,1.766
			s7.721-0.567,10.11-1.767V38.022z M54.885,35.792c-6.562,0-9.93-1.636-10.11-2.227v-0.007c0.181-0.626,3.549-2.26,10.11-2.26
			c6.516,0,9.886,1.611,10.11,2.247C64.77,34.181,61.4,35.792,54.885,35.792z"/>
	</g>
</g>
<g>
	<g>
		<path d="M18.937,43.815h-8.492l-4.026-4.404V32.11l4.446-4.342h8.071c0.532,0,0.963-0.431,0.963-0.963
			c0-0.532-0.431-0.963-0.963-0.963h-8.462c-0.252-0.001-0.494,0.097-0.674,0.273L4.782,31.01c-0.187,0.219-0.29,0.498-0.29,0.786
			v7.989c0,0.24,0.09,0.472,0.252,0.649l4.564,4.992c0.182,0.2,0.441,0.314,0.711,0.313h8.917c0.532,0,0.963-0.431,0.963-0.963
			C19.899,44.246,19.469,43.815,18.937,43.815z"/>
	</g>
</g>
<g>
	<g>
		<path d="M28.485,34.669h-1.123c-0.349,0-0.562-0.195-0.562-0.281s0.212-0.281,0.562-0.281h2.808c0.62,0,1.123-0.503,1.123-1.123
			c0-0.62-0.503-1.123-1.123-1.123h-1.123c0-0.62-0.503-1.123-1.123-1.123c-0.62,0-1.123,0.503-1.123,1.123v0.051
			c-1.246,0.176-2.19,1.214-2.247,2.471c0.08,1.473,1.335,2.605,2.808,2.533h1.123c0.349,0,0.562,0.195,0.562,0.281
			s-0.212,0.281-0.562,0.281h-2.808c-0.62,0-1.123,0.503-1.123,1.123s0.503,1.123,1.123,1.123H26.8c0,0.62,0.503,1.123,1.123,1.123
			c0.62,0,1.123-0.503,1.123-1.123v-0.051c1.246-0.176,2.19-1.214,2.247-2.471C31.213,35.729,29.959,34.598,28.485,34.669z"/>
	</g>
</g>
</svg>
