<?xml version="1.0" encoding="utf-8"?>
<!-- Generator: Adobe Illustrator 22.1.0, SVG Export Plug-In . SVG Version: 6.00 Build 0)  -->
<svg version="1.1" id="Layer_1" xmlns="http://www.w3.org/2000/svg" xmlns:xlink="http://www.w3.org/1999/xlink" x="0px" y="0px"
	 width="47.701px" height="65px" viewBox="0 0 47.701 65" enable-background="new 0 0 47.701 65" xml:space="preserve" fill="#fccf91">
<path d="M19.271,4.07h-2.035c-0.527,0-0.954,0.427-0.954,0.954c0,0.527,0.427,0.954,0.954,0.954h2.035
	c0.527,0,0.954-0.427,0.954-0.954C20.225,4.497,19.798,4.07,19.271,4.07z"/>
<path d="M24.359,4.07h-1.018c-0.527,0-0.954,0.427-0.954,0.954c0,0.527,0.427,0.954,0.954,0.954h1.018
	c0.527,0,0.954-0.427,0.954-0.954C25.313,4.497,24.886,4.07,24.359,4.07z"/>
<path d="M13.165,4.07h-1.018c-0.527,0-0.954,0.427-0.954,0.954c0,0.527,0.427,0.954,0.954,0.954h1.018
	c0.527,0,0.954-0.427,0.954-0.954C14.12,4.497,13.692,4.07,13.165,4.07z"/>
<path d="M20.289,59.021h-4.07c-0.527,0-0.954,0.427-0.954,0.954c0,0.527,0.427,0.954,0.954,0.954h4.07
	c0.527,0,0.954-0.427,0.954-0.954C21.243,59.449,20.815,59.021,20.289,59.021z"/>
<path d="M43.694,16.282h-7.187V5.025C36.507,2.254,34.253,0,31.482,0H5.025C2.254,0,0,2.254,0,5.025v7.25
	c0,0.527,0.427,0.954,0.954,0.954c0.527,0,0.954-0.427,0.954-0.954V9.032h32.69v7.25H17.236c-2.209,0-4.007,1.798-4.007,4.007
	v28.493c0,0.83,1.039,1.264,1.629,0.674l7.862-7.861h11.88v13.356H1.908v-38.16c0-0.527-0.427-0.954-0.954-0.954
	C0.427,15.836,0,16.264,0,16.791v43.185C0,62.746,2.254,65,5.025,65h26.458c2.771,0,5.025-2.254,5.025-5.025v-18.38h7.187
	c2.209,0,4.007-1.798,4.007-4.007V20.289C47.701,18.079,45.903,16.282,43.694,16.282z M1.908,7.123V5.025
	c0-1.718,1.398-3.116,3.116-3.116h26.458c1.718,0,3.116,1.398,3.116,3.116v2.099H1.908z M31.482,63.092H5.025
	c-1.718,0-3.116-1.398-3.116-3.116v-3.116h32.69v3.116C34.599,61.694,33.201,63.092,31.482,63.092z M45.792,37.588
	c0,1.157-0.941,2.099-2.099,2.099h-21.37c-0.253,0-0.496,0.101-0.674,0.28l-6.512,6.512v-26.19c0-1.157,0.941-2.099,2.099-2.099
	h26.458c1.157,0,2.099,0.941,2.099,2.099V37.588z"/>
<path d="M35.489,29.447c0-1.884-1.043-3.528-2.581-4.388c0.343-0.486,0.546-1.079,0.546-1.718c0-1.648-1.341-2.989-2.989-2.989
	s-2.989,1.341-2.989,2.989c0,0.639,0.202,1.231,0.546,1.718c-1.538,0.86-2.581,2.504-2.581,4.388c0,4.558-1.746,6.438-1.756,6.449
	c-0.589,0.589-0.157,1.629,0.674,1.629H36.57c0.827,0,1.274-1.029,0.682-1.621C37.235,35.885,35.489,34.005,35.489,29.447z
	 M29.384,23.342c0-0.596,0.485-1.081,1.081-1.081s1.081,0.485,1.081,1.081s-0.485,1.081-1.081,1.081S29.384,23.938,29.384,23.342z
	 M26.099,35.616c0.608-1.248,1.25-3.255,1.25-6.169c0-1.718,1.398-3.116,3.116-3.116s3.116,1.398,3.116,3.116
	c0,2.914,0.642,4.921,1.25,6.169H26.099z"/>
</svg>
